# xmcd
#
# Track frame offsets:
#	150
#	18295
#	33375
#	49167
#	68400
#	82882
#	103117
#	115692
#	130400
#	146782
#	161982
#	177460
#	191720
#	206277
#	224477
#	241417
#	259145
#	275562
#	287110
#	305155
#
# Disc length: 4319 seconds
#
# Revision: 1
# Processed by: cddbd v1.5.2PL0 Copyright (c) Steve Scherf et al.
# Submitted via: audiograbber 1.83.01
#
DISCID=3310dd14
DTITLE=Rondell - A Man Like Me
DYEAR=2002
DGENRE=Rhythm and Blues
TTITLE0=I Got Time
TTITLE1=Princess Pornstar
TTITLE2=A Man Like Me
TTITLE3=It's Time We Let This Thing Go
TTITLE4=She Wants Half
TTITLE5=Put That Thang On You
TTITLE6=The Ways Of A Woman
TTITLE7=Freak
TTITLE8=Are We Just Friends
TTITLE9=I Want To Feel Your Pain
TTITLE10=Will You Be My Lady
TTITLE11=Have You Seen Her
TTITLE12=You Are My Butterfly
TTITLE13=Don't Let Money Change You
TTITLE14=Private Dance
TTITLE15=Play It Again Mister DJ
TTITLE16=Anything You Want
TTITLE17=Thank You
TTITLE18=Fighting For Your Freedom
TTITLE19=Don't Let Money Change You (Remix)
EXTD=Ballard Hill Records (delRon Productions]\nVirginia Beach, VA
EXTT0=
EXTT1=
EXTT2=
EXTT3=
EXTT4=
EXTT5=
EXTT6=
EXTT7=
EXTT8=
EXTT9=
EXTT10=
EXTT11=
EXTT12=
EXTT13=
EXTT14=
EXTT15=
EXTT16=
EXTT17=
EXTT18=
EXTT19=
PLAYORDER=
